<svg width="432" height="144" viewBox="0 0 432 144" fill="none" xmlns="http://www.w3.org/2000/svg">
<path d="M207.36 57.6H0V0H207.36V57.6ZM432 86.4H224.64V144H432V86.4ZM328.32 0C312.41 0 299.52 12.89 299.52 28.8C299.52 44.71 312.41 57.6 328.32 57.6C344.23 57.6 357.12 44.71 357.12 28.8C357.12 12.89 344.23 0 328.32 0ZM253.44 0C237.53 0 224.64 12.89 224.64 28.8C224.64 44.71 237.53 57.6 253.44 57.6C269.35 57.6 282.24 44.71 282.24 28.8C282.24 12.89 269.35 0 253.44 0ZM403.2 0C387.29 0 374.4 12.89 374.4 28.8C374.4 44.71 387.29 57.6 403.2 57.6C419.11 57.6 432 44.71 432 28.8C432 12.89 419.11 0 403.2 0ZM178.56 86.4C162.65 86.4 149.76 99.29 149.76 115.2C149.76 131.11 162.65 144 178.56 144C194.47 144 207.36 131.11 207.36 115.2C207.36 99.29 194.47 86.4 178.56 86.4ZM103.68 86.4C87.77 86.4 74.88 99.29 74.88 115.2C74.88 131.11 87.77 144 103.68 144C119.59 144 132.48 131.11 132.48 115.2C132.48 99.29 119.59 86.4 103.68 86.4ZM28.8 86.4C12.89 86.4 0 99.29 0 115.2C0 131.11 12.89 144 28.8 144C44.71 144 57.6 131.11 57.6 115.2C57.6 99.29 44.71 86.4 28.8 86.4Z" fill="white"/>
</svg>
